# xmcd
#
# Track frame offsets: 
#        150
#        15003
#        30827
#        49319
#        66067
#        78424
#        97285
#        111791
#        132246
#        150705
#        168351
#
# Disc length: 2437 seconds
#
# Revision: 0
# Processed by: cddbd v1.5.1PL0 Copyright (c) Steve Scherf et al.
# Submitted via: ExactAudioCopy v0.95a5
#
DISCID=7f09830b
DTITLE=Linda Davis - I Have Arrived
DYEAR=2004
DGENRE=Country
TTITLE0=I Know That's Right
TTITLE1=Love Sneakin' Up On You
TTITLE2=One By One
TTITLE3=I Have Arrived
TTITLE4=Surrender
TTITLE5=Everything I Do (I Do It For You)
TTITLE6=Even Angels Fall
TTITLE7=Sherry Goes To Vegas
TTITLE8=Something's Changed
TTITLE9=Back To Us
TTITLE10=Livin' The Dream
EXTD=
EXTT0=
EXTT1=
EXTT2=
EXTT3=
EXTT4=
EXTT5=
EXTT6=
EXTT7=
EXTT8=
EXTT9=
EXTT10=
PLAYORDER=
